
<svg width="512" height="512" viewBox="0 0 500 500" xmlns="http://www.w3.org/2000/svg">
  <defs>
    <linearGradient id="gradCyan" x1="0%" y1="0%" x2="100%" y2="100%">
      <stop offset="0%" style="stop-color:#2dd4bf;stop-opacity:1" />
      <stop offset="100%" style="stop-color:#0ea5e9;stop-opacity:1" />
    </linearGradient>
    <linearGradient id="gradBlue" x1="0%" y1="0%" x2="100%" y2="100%">
      <stop offset="0%" style="stop-color:#1e3a8a;stop-opacity:1" />
      <stop offset="100%" style="stop-color:#3b82f6;stop-opacity:1" />
    </linearGradient>
    <linearGradient id="gradGreen" x1="0%" y1="0%" x2="100%" y2="100%">
      <stop offset="0%" style="stop-color:#4ade80;stop-opacity:1" />
      <stop offset="100%" style="stop-color:#16a34a;stop-opacity:1" />
    </linearGradient>
  </defs>

  <!-- Top Segment (Cyan) -->
  <path 
    d="M 250 50 C 280 50, 350 150, 400 220 L 330 260 C 290 200, 250 130, 250 130 C 250 130, 210 200, 170 260 L 100 220 C 150 150, 220 50, 250 50 Z" 
    fill="url(#gradCyan)" 
  />
  
  <!-- Right Segment (Green) -->
  <path 
    d="M 400 220 C 430 270, 450 350, 420 400 C 390 450, 300 450, 250 450 L 250 370 C 290 370, 340 370, 360 340 C 380 310, 330 260, 330 260 Z" 
    fill="url(#gradGreen)" 
  />

  <!-- Left Segment (Blue) -->
  <path 
    d="M 100 220 C 70 270, 50 350, 80 400 C 110 450, 200 450, 250 450 L 250 370 C 210 370, 160 370, 140 340 C 120 310, 170 260, 170 260 Z" 
    fill="url(#gradBlue)" 
  />

  <!-- Top Icon: Barcode (White) -->
  <g transform="translate(190, 100) scale(0.8)" fill="white" opacity="0.9">
      <rect x="10" y="10" width="5" height="40" />
      <rect x="20" y="10" width="2" height="40" />
      <rect x="25" y="10" width="8" height="40" />
      <rect x="38" y="10" width="3" height="40" />
      <rect x="45" y="10" width="6" height="40" />
      <rect x="55" y="10" width="4" height="40" />
      <rect x="65" y="10" width="10" height="40" />
      <text x="40" y="65" font-size="10" text-anchor="middle" font-weight="bold">||||||</text>
  </g>

  <!-- Right Icon: Gear (White) -->
  <g transform="translate(350, 300) scale(0.6)" fill="white" opacity="0.9">
      <path d="M40 0 L50 0 L55 15 A25 25 0 0 1 65 20 L80 15 L85 25 L75 35 A25 25 0 0 1 75 45 L85 55 L80 65 L65 60 A25 25 0 0 1 55 65 L50 80 L40 80 L35 65 A25 25 0 0 1 25 60 L10 65 L5 55 L15 45 A25 25 0 0 1 15 35 L5 25 L10 15 L25 20 A25 25 0 0 1 35 15 L40 0 Z M 45 30 A 15 15 0 1 0 45 60 A 15 15 0 1 0 45 30 Z" />
  </g>

  <!-- Left Icon: Card Payment / Handshake (White) -->
  <g transform="translate(90, 300) scale(0.6)" fill="white" opacity="0.9">
      <path d="M10 40 L30 60 L60 30 L50 20 L30 40 L20 30 Z" />
      <path d="M40 70 L60 50 L80 70" stroke="white" stroke-width="5" fill="none" />
  </g>

  <!-- Center Icon: Shopping Cart -->
  <g transform="translate(210, 230) scale(1.5)">
      <path d="M10 10 L20 10 L30 40 L55 40 L60 20 L25 20" stroke="#0f172a" stroke-width="3" fill="none" stroke-linecap="round" stroke-linejoin="round" />
      <text x="40" y="35" font-size="20" font-weight="bold" fill="#0ea5e9" text-anchor="middle">€</text>
      <circle cx="30" cy="45" r="3" fill="#0f172a" />
      <circle cx="55" cy="45" r="3" fill="#0f172a" />
  </g>
</svg>
